<mxfile host="app.diagrams.net" modified="2021-08-11T05:41:14.683Z" agent="5.0 (Windows NT 10.0; Win64; x64) AppleWebKit/537.36 (KHTML, like Gecko) Chrome/92.0.4515.131 Safari/537.36 Edg/92.0.902.67" etag="AhtIXEno7TstxUnTuo9V" version="14.9.4" type="github">
  <diagram id="4VX5qxL8OY-AjHxujLc7" name="Page-1">
    <mxGraphModel dx="1422" dy="754" grid="1" gridSize="10" guides="1" tooltips="1" connect="1" arrows="1" fold="1" page="1" pageScale="1" pageWidth="850" pageHeight="1100" math="0" shadow="0">
      <root>
        <mxCell id="0" />
        <mxCell id="1" parent="0" />
        <mxCell id="r7Bqph7fw_y8MnQ4Mw1A-1" value="&lt;h1&gt;Lab 4.1&lt;/h1&gt;&lt;p&gt;&lt;font style=&quot;font-size: 17px&quot;&gt;ผังงาน โปรเเกรมคำนวน&lt;br&gt;&lt;/font&gt;&lt;/p&gt;" style="text;html=1;strokeColor=none;fillColor=none;spacing=5;spacingTop=-20;whiteSpace=wrap;overflow=hidden;rounded=0;" vertex="1" parent="1">
          <mxGeometry x="30" y="30" width="290" height="90" as="geometry" />
        </mxCell>
        <mxCell id="r7Bqph7fw_y8MnQ4Mw1A-2" value="&lt;font style=&quot;font-size: 22px&quot;&gt;ณัฐกิตติ์ ฟองสุวรรณ วต. 1/1&lt;br&gt;รหัส นศ. 164404140009&lt;br&gt;&lt;/font&gt;" style="text;html=1;strokeColor=none;fillColor=none;align=center;verticalAlign=middle;whiteSpace=wrap;rounded=0;" vertex="1" parent="1">
          <mxGeometry x="550" y="65" width="260" height="20" as="geometry" />
        </mxCell>
        <mxCell id="r7Bqph7fw_y8MnQ4Mw1A-6" value="" style="edgeStyle=orthogonalEdgeStyle;rounded=0;orthogonalLoop=1;jettySize=auto;html=1;" edge="1" parent="1" source="r7Bqph7fw_y8MnQ4Mw1A-3" target="r7Bqph7fw_y8MnQ4Mw1A-4">
          <mxGeometry relative="1" as="geometry" />
        </mxCell>
        <mxCell id="r7Bqph7fw_y8MnQ4Mw1A-3" value="start" style="strokeWidth=2;html=1;shape=mxgraph.flowchart.terminator;whiteSpace=wrap;" vertex="1" parent="1">
          <mxGeometry x="375" y="160" width="100" height="60" as="geometry" />
        </mxCell>
        <mxCell id="r7Bqph7fw_y8MnQ4Mw1A-4" value="float LDL, HDL ,TG" style="rounded=0;whiteSpace=wrap;html=1;strokeWidth=2;" vertex="1" parent="1">
          <mxGeometry x="365" y="250" width="120" height="60" as="geometry" />
        </mxCell>
        <mxCell id="r7Bqph7fw_y8MnQ4Mw1A-5" value="LDL, HDL, TG" style="html=1;strokeWidth=2;shape=manualInput;whiteSpace=wrap;rounded=1;size=26;arcSize=11;" vertex="1" parent="1">
          <mxGeometry x="375" y="340" width="100" height="60" as="geometry" />
        </mxCell>
        <mxCell id="r7Bqph7fw_y8MnQ4Mw1A-28" value="" style="edgeStyle=orthogonalEdgeStyle;rounded=0;orthogonalLoop=1;jettySize=auto;html=1;" edge="1" parent="1" source="r7Bqph7fw_y8MnQ4Mw1A-8" target="r7Bqph7fw_y8MnQ4Mw1A-9">
          <mxGeometry relative="1" as="geometry" />
        </mxCell>
        <mxCell id="r7Bqph7fw_y8MnQ4Mw1A-8" value="TC = HDL + LDL + (TG/5.0)" style="rounded=0;whiteSpace=wrap;html=1;strokeWidth=2;" vertex="1" parent="1">
          <mxGeometry x="348" y="440" width="155" height="60" as="geometry" />
        </mxCell>
        <mxCell id="r7Bqph7fw_y8MnQ4Mw1A-13" value="" style="edgeStyle=orthogonalEdgeStyle;rounded=0;orthogonalLoop=1;jettySize=auto;html=1;" edge="1" parent="1" source="r7Bqph7fw_y8MnQ4Mw1A-9" target="r7Bqph7fw_y8MnQ4Mw1A-10">
          <mxGeometry relative="1" as="geometry" />
        </mxCell>
        <mxCell id="r7Bqph7fw_y8MnQ4Mw1A-18" value="" style="edgeStyle=orthogonalEdgeStyle;rounded=0;orthogonalLoop=1;jettySize=auto;html=1;" edge="1" parent="1" source="r7Bqph7fw_y8MnQ4Mw1A-9" target="r7Bqph7fw_y8MnQ4Mw1A-15">
          <mxGeometry relative="1" as="geometry" />
        </mxCell>
        <mxCell id="r7Bqph7fw_y8MnQ4Mw1A-9" value="TC &amp;lt; 200" style="strokeWidth=2;html=1;shape=mxgraph.flowchart.decision;whiteSpace=wrap;" vertex="1" parent="1">
          <mxGeometry x="375" y="530" width="100" height="80" as="geometry" />
        </mxCell>
        <mxCell id="r7Bqph7fw_y8MnQ4Mw1A-14" value="" style="edgeStyle=orthogonalEdgeStyle;rounded=0;orthogonalLoop=1;jettySize=auto;html=1;" edge="1" parent="1" source="r7Bqph7fw_y8MnQ4Mw1A-10" target="r7Bqph7fw_y8MnQ4Mw1A-11">
          <mxGeometry relative="1" as="geometry" />
        </mxCell>
        <mxCell id="r7Bqph7fw_y8MnQ4Mw1A-19" value="" style="edgeStyle=orthogonalEdgeStyle;rounded=0;orthogonalLoop=1;jettySize=auto;html=1;" edge="1" parent="1" source="r7Bqph7fw_y8MnQ4Mw1A-10" target="r7Bqph7fw_y8MnQ4Mw1A-16">
          <mxGeometry relative="1" as="geometry" />
        </mxCell>
        <mxCell id="r7Bqph7fw_y8MnQ4Mw1A-10" value="TC &amp;gt;= 239&amp;nbsp;" style="strokeWidth=2;html=1;shape=mxgraph.flowchart.decision;whiteSpace=wrap;" vertex="1" parent="1">
          <mxGeometry x="373" y="640" width="105" height="80" as="geometry" />
        </mxCell>
        <mxCell id="r7Bqph7fw_y8MnQ4Mw1A-20" value="" style="edgeStyle=orthogonalEdgeStyle;rounded=0;orthogonalLoop=1;jettySize=auto;html=1;" edge="1" parent="1" source="r7Bqph7fw_y8MnQ4Mw1A-11" target="r7Bqph7fw_y8MnQ4Mw1A-17">
          <mxGeometry relative="1" as="geometry" />
        </mxCell>
        <mxCell id="r7Bqph7fw_y8MnQ4Mw1A-22" value="" style="edgeStyle=orthogonalEdgeStyle;rounded=0;orthogonalLoop=1;jettySize=auto;html=1;" edge="1" parent="1" source="r7Bqph7fw_y8MnQ4Mw1A-11" target="r7Bqph7fw_y8MnQ4Mw1A-21">
          <mxGeometry relative="1" as="geometry" />
        </mxCell>
        <mxCell id="r7Bqph7fw_y8MnQ4Mw1A-11" value="TC &amp;gt; 240" style="strokeWidth=2;html=1;shape=mxgraph.flowchart.decision;whiteSpace=wrap;" vertex="1" parent="1">
          <mxGeometry x="375.5" y="750" width="100" height="80" as="geometry" />
        </mxCell>
        <mxCell id="r7Bqph7fw_y8MnQ4Mw1A-24" style="edgeStyle=orthogonalEdgeStyle;rounded=0;orthogonalLoop=1;jettySize=auto;html=1;entryX=0.908;entryY=0.5;entryDx=0;entryDy=0;entryPerimeter=0;" edge="1" parent="1" source="r7Bqph7fw_y8MnQ4Mw1A-15" target="r7Bqph7fw_y8MnQ4Mw1A-21">
          <mxGeometry relative="1" as="geometry">
            <mxPoint x="450" y="880" as="targetPoint" />
            <Array as="points">
              <mxPoint x="740" y="570" />
              <mxPoint x="740" y="880" />
            </Array>
          </mxGeometry>
        </mxCell>
        <mxCell id="r7Bqph7fw_y8MnQ4Mw1A-15" value="OPTIMAL" style="strokeWidth=2;html=1;shape=mxgraph.flowchart.display;whiteSpace=wrap;" vertex="1" parent="1">
          <mxGeometry x="530" y="540" width="100" height="60" as="geometry" />
        </mxCell>
        <mxCell id="r7Bqph7fw_y8MnQ4Mw1A-25" style="edgeStyle=orthogonalEdgeStyle;rounded=0;orthogonalLoop=1;jettySize=auto;html=1;" edge="1" parent="1" source="r7Bqph7fw_y8MnQ4Mw1A-16">
          <mxGeometry relative="1" as="geometry">
            <mxPoint x="740" y="680" as="targetPoint" />
          </mxGeometry>
        </mxCell>
        <mxCell id="r7Bqph7fw_y8MnQ4Mw1A-16" value="HIGHT" style="strokeWidth=2;html=1;shape=mxgraph.flowchart.display;whiteSpace=wrap;" vertex="1" parent="1">
          <mxGeometry x="530" y="650" width="100" height="60" as="geometry" />
        </mxCell>
        <mxCell id="r7Bqph7fw_y8MnQ4Mw1A-26" style="edgeStyle=orthogonalEdgeStyle;rounded=0;orthogonalLoop=1;jettySize=auto;html=1;" edge="1" parent="1" source="r7Bqph7fw_y8MnQ4Mw1A-17">
          <mxGeometry relative="1" as="geometry">
            <mxPoint x="740" y="790" as="targetPoint" />
          </mxGeometry>
        </mxCell>
        <mxCell id="r7Bqph7fw_y8MnQ4Mw1A-17" value="RISK" style="strokeWidth=2;html=1;shape=mxgraph.flowchart.display;whiteSpace=wrap;" vertex="1" parent="1">
          <mxGeometry x="530" y="760" width="100" height="60" as="geometry" />
        </mxCell>
        <mxCell id="r7Bqph7fw_y8MnQ4Mw1A-27" value="" style="edgeStyle=orthogonalEdgeStyle;rounded=0;orthogonalLoop=1;jettySize=auto;html=1;" edge="1" parent="1" source="r7Bqph7fw_y8MnQ4Mw1A-21" target="r7Bqph7fw_y8MnQ4Mw1A-23">
          <mxGeometry relative="1" as="geometry" />
        </mxCell>
        <mxCell id="r7Bqph7fw_y8MnQ4Mw1A-21" value="" style="verticalLabelPosition=bottom;verticalAlign=top;html=1;shape=mxgraph.flowchart.on-page_reference;strokeWidth=2;" vertex="1" parent="1">
          <mxGeometry x="407.75" y="860" width="35.5" height="40" as="geometry" />
        </mxCell>
        <mxCell id="r7Bqph7fw_y8MnQ4Mw1A-23" value="end" style="strokeWidth=2;html=1;shape=mxgraph.flowchart.terminator;whiteSpace=wrap;" vertex="1" parent="1">
          <mxGeometry x="375.5" y="930" width="100" height="60" as="geometry" />
        </mxCell>
      </root>
    </mxGraphModel>
  </diagram>
</mxfile>
